<svg width="373" height="35" viewBox="0 0 372.69 35" xmlns="http://www.w3.org/2000/svg" role="img" aria-label="Bandung Travel Guide">
<title>Bandung Travel Guide</title>
<path d="M0.858 26.791Q0.448 26.791 0.224 26.549Q0 26.306 0 25.933V1.567Q0 1.157 0.224 0.914Q0.448 0.672 0.858 0.672H11.082Q13.881 0.672 15.653 1.586Q17.425 2.5 18.265 4.067Q19.104 5.634 19.104 7.575Q19.104 9.104 18.601 10.205Q18.097 11.306 17.351 11.996Q16.604 12.687 15.896 13.06Q17.351 13.769 18.489 15.373Q19.627 16.978 19.627 19.254Q19.627 21.306 18.694 23.022Q17.761 24.739 15.914 25.765Q14.067 26.791 11.381 26.791ZM3.657 23.769H10.896Q13.284 23.769 14.59 22.463Q15.896 21.157 15.896 19.254Q15.896 17.276 14.59 15.989Q13.284 14.701 10.896 14.701H3.657ZM3.657 11.716H10.522Q12.91 11.716 14.142 10.616Q15.373 9.515 15.373 7.612Q15.373 5.709 14.142 4.701Q12.91 3.694 10.522 3.694H3.657Z M29.851 27.164Q27.985 27.164 26.455 26.418Q24.925 25.672 23.993 24.403Q23.06 23.134 23.06 21.53Q23.06 18.955 25.149 17.425Q27.239 15.896 30.597 15.41L36.157 14.627V13.545Q36.157 11.754 35.131 10.746Q34.104 9.739 31.791 9.739Q30.149 9.739 29.104 10.41Q28.06 11.082 27.649 12.127Q27.425 12.687 26.866 12.687H25.187Q24.776 12.687 24.571 12.444Q24.366 12.201 24.366 11.866Q24.366 11.306 24.795 10.485Q25.224 9.664 26.119 8.881Q27.015 8.097 28.414 7.556Q29.813 7.015 31.828 7.015Q34.067 7.015 35.597 7.593Q37.127 8.172 38.004 9.142Q38.881 10.112 39.272 11.343Q39.664 12.575 39.664 13.843V25.933Q39.664 26.306 39.422 26.549Q39.179 26.791 38.806 26.791H37.09Q36.679 26.791 36.455 26.549Q36.231 26.306 36.231 25.933V24.328Q35.746 25 34.925 25.653Q34.104 26.306 32.873 26.735Q31.642 27.164 29.851 27.164ZM30.634 24.366Q32.164 24.366 33.433 23.713Q34.701 23.06 35.429 21.679Q36.157 20.299 36.157 18.209V17.164L31.828 17.799Q29.179 18.172 27.836 19.049Q26.493 19.925 26.493 21.269Q26.493 22.313 27.108 23.004Q27.724 23.694 28.675 24.03Q29.627 24.366 30.634 24.366Z M45.896 26.791Q45.522 26.791 45.28 26.549Q45.037 26.306 45.037 25.933V8.246Q45.037 7.873 45.28 7.631Q45.522 7.388 45.896 7.388H47.649Q48.022 7.388 48.265 7.631Q48.507 7.873 48.507 8.246V9.888Q49.478 8.619 50.951 7.817Q52.425 7.015 54.739 7.015Q57.164 7.015 58.862 8.078Q60.56 9.142 61.437 11.026Q62.313 12.91 62.313 15.41V25.933Q62.313 26.306 62.071 26.549Q61.828 26.791 61.455 26.791H59.59Q59.216 26.791 58.974 26.549Q58.731 26.306 58.731 25.933V15.597Q58.731 12.985 57.463 11.511Q56.194 10.037 53.731 10.037Q51.418 10.037 50.019 11.511Q48.619 12.985 48.619 15.597V25.933Q48.619 26.306 48.377 26.549Q48.134 26.791 47.761 26.791Z M74.739 27.164Q72.687 27.164 71.194 26.437Q69.701 25.709 68.75 24.459Q67.799 23.209 67.332 21.604Q66.866 20 66.791 18.209Q66.754 17.612 66.754 17.09Q66.754 16.567 66.791 15.97Q66.866 14.216 67.332 12.612Q67.799 11.007 68.75 9.739Q69.701 8.47 71.194 7.743Q72.687 7.015 74.739 7.015Q76.94 7.015 78.396 7.799Q79.851 8.582 80.784 9.739V1.157Q80.784 0.784 81.026 0.541Q81.269 0.299 81.642 0.299H83.433Q83.806 0.299 84.049 0.541Q84.291 0.784 84.291 1.157V25.933Q84.291 26.306 84.049 26.549Q83.806 26.791 83.433 26.791H81.754Q81.343 26.791 81.119 26.549Q80.896 26.306 80.896 25.933V24.366Q79.963 25.56 78.47 26.362Q76.978 27.164 74.739 27.164ZM75.522 24.142Q77.388 24.142 78.507 23.284Q79.627 22.425 80.187 21.101Q80.746 19.776 80.784 18.396Q80.821 17.799 80.821 16.959Q80.821 16.119 80.784 15.522Q80.746 14.216 80.168 12.948Q79.59 11.679 78.451 10.858Q77.313 10.037 75.522 10.037Q73.619 10.037 72.5 10.877Q71.381 11.716 70.896 13.078Q70.41 14.44 70.336 16.007Q70.299 17.09 70.336 18.172Q70.41 19.739 70.896 21.101Q71.381 22.463 72.5 23.302Q73.619 24.142 75.522 24.142Z M97.09 27.164Q94.701 27.164 93.041 26.101Q91.381 25.037 90.522 23.134Q89.664 21.231 89.664 18.769V8.246Q89.664 7.873 89.907 7.631Q90.149 7.388 90.522 7.388H92.388Q92.761 7.388 93.004 7.631Q93.246 7.873 93.246 8.246V18.582Q93.246 24.142 98.097 24.142Q100.41 24.142 101.81 22.668Q103.209 21.194 103.209 18.582V8.246Q103.209 7.873 103.451 7.631Q103.694 7.388 104.067 7.388H105.933Q106.306 7.388 106.53 7.631Q106.754 7.873 106.754 8.246V25.933Q106.754 26.306 106.53 26.549Q106.306 26.791 105.933 26.791H104.179Q103.806 26.791 103.563 26.549Q103.321 26.306 103.321 25.933V24.291Q102.313 25.597 100.877 26.381Q99.44 27.164 97.09 27.164Z M113.172 26.791Q112.799 26.791 112.556 26.549Q112.313 26.306 112.313 25.933V8.246Q112.313 7.873 112.556 7.631Q112.799 7.388 113.172 7.388H114.925Q115.299 7.388 115.541 7.631Q115.784 7.873 115.784 8.246V9.888Q116.754 8.619 118.228 7.817Q119.701 7.015 122.015 7.015Q124.44 7.015 126.138 8.078Q127.836 9.142 128.713 11.026Q129.59 12.91 129.59 15.41V25.933Q129.59 26.306 129.347 26.549Q129.104 26.791 128.731 26.791H126.866Q126.493 26.791 126.25 26.549Q126.007 26.306 126.007 25.933V15.597Q126.007 12.985 124.739 11.511Q123.47 10.037 121.007 10.037Q118.694 10.037 117.295 11.511Q115.896 12.985 115.896 15.597V25.933Q115.896 26.306 115.653 26.549Q115.41 26.791 115.037 26.791Z M142.873 35Q140.336 35 138.713 34.328Q137.09 33.657 136.175 32.705Q135.261 31.754 134.869 30.802Q134.478 29.851 134.44 29.291Q134.403 28.918 134.683 28.657Q134.963 28.396 135.299 28.396H137.09Q137.425 28.396 137.649 28.545Q137.873 28.694 138.022 29.179Q138.246 29.739 138.694 30.429Q139.142 31.119 140.075 31.623Q141.007 32.127 142.687 32.127Q144.44 32.127 145.634 31.642Q146.828 31.157 147.444 30Q148.06 28.843 148.06 26.791V24.254Q147.164 25.41 145.709 26.175Q144.254 26.94 142.052 26.94Q139.963 26.94 138.47 26.213Q136.978 25.485 136.026 24.235Q135.075 22.985 134.608 21.381Q134.142 19.776 134.067 18.022Q134.03 16.978 134.067 15.97Q134.142 14.216 134.608 12.612Q135.075 11.007 136.026 9.739Q136.978 8.47 138.47 7.743Q139.963 7.015 142.052 7.015Q144.291 7.015 145.765 7.836Q147.239 8.657 148.172 9.888V8.284Q148.172 7.91 148.414 7.649Q148.657 7.388 149.03 7.388H150.746Q151.119 7.388 151.381 7.649Q151.642 7.91 151.642 8.284V26.381Q151.642 28.881 150.802 30.821Q149.963 32.761 148.041 33.881Q146.119 35 142.873 35ZM142.799 23.955Q144.664 23.955 145.802 23.097Q146.94 22.239 147.481 20.933Q148.022 19.627 148.06 18.284Q148.097 17.761 148.097 16.996Q148.097 16.231 148.06 15.709Q148.022 14.366 147.481 13.06Q146.94 11.754 145.802 10.896Q144.664 10.037 142.799 10.037Q140.933 10.037 139.813 10.877Q138.694 11.716 138.209 13.078Q137.724 14.44 137.649 16.007Q137.612 16.978 137.649 17.985Q137.724 19.552 138.209 20.914Q138.694 22.276 139.813 23.116Q140.933 23.955 142.799 23.955Z M172.463 26.791Q172.09 26.791 171.847 26.549Q171.604 26.306 171.604 25.933V3.993H164.44Q164.067 3.993 163.825 3.75Q163.582 3.507 163.582 3.134V1.567Q163.582 1.157 163.825 0.914Q164.067 0.672 164.44 0.672H182.425Q182.836 0.672 183.078 0.914Q183.321 1.157 183.321 1.567V3.134Q183.321 3.507 183.078 3.75Q182.836 3.993 182.425 3.993H175.299V25.933Q175.299 26.306 175.056 26.549Q174.813 26.791 174.403 26.791Z M184.851 26.791Q184.478 26.791 184.235 26.549Q183.993 26.306 183.993 25.933V8.284Q183.993 7.91 184.235 7.649Q184.478 7.388 184.851 7.388H186.567Q186.94 7.388 187.201 7.649Q187.463 7.91 187.463 8.284V9.925Q188.209 8.657 189.515 8.022Q190.821 7.388 192.687 7.388H194.142Q194.515 7.388 194.757 7.631Q195 7.873 195 8.246V9.776Q195 10.149 194.757 10.373Q194.515 10.597 194.142 10.597H191.903Q189.888 10.597 188.731 11.772Q187.575 12.948 187.575 14.963V25.933Q187.575 26.306 187.313 26.549Q187.052 26.791 186.679 26.791Z M203.284 27.164Q201.418 27.164 199.888 26.418Q198.358 25.672 197.425 24.403Q196.493 23.134 196.493 21.53Q196.493 18.955 198.582 17.425Q200.672 15.896 204.03 15.41L209.59 14.627V13.545Q209.59 11.754 208.563 10.746Q207.537 9.739 205.224 9.739Q203.582 9.739 202.537 10.41Q201.493 11.082 201.082 12.127Q200.858 12.687 200.299 12.687H198.619Q198.209 12.687 198.004 12.444Q197.799 12.201 197.799 11.866Q197.799 11.306 198.228 10.485Q198.657 9.664 199.552 8.881Q200.448 8.097 201.847 7.556Q203.246 7.015 205.261 7.015Q207.5 7.015 209.03 7.593Q210.56 8.172 211.437 9.142Q212.313 10.112 212.705 11.343Q213.097 12.575 213.097 13.843V25.933Q213.097 26.306 212.854 26.549Q212.612 26.791 212.239 26.791H210.522Q210.112 26.791 209.888 26.549Q209.664 26.306 209.664 25.933V24.328Q209.179 25 208.358 25.653Q207.537 26.306 206.306 26.735Q205.075 27.164 203.284 27.164ZM204.067 24.366Q205.597 24.366 206.866 23.713Q208.134 23.06 208.862 21.679Q209.59 20.299 209.59 18.209V17.164L205.261 17.799Q202.612 18.172 201.269 19.049Q199.925 19.925 199.925 21.269Q199.925 22.313 200.541 23.004Q201.157 23.694 202.108 24.03Q203.06 24.366 204.067 24.366Z M224.851 26.791Q224.291 26.791 223.974 26.53Q223.657 26.269 223.47 25.858L216.567 8.545Q216.493 8.358 216.493 8.172Q216.493 7.836 216.716 7.612Q216.94 7.388 217.276 7.388H219.067Q219.478 7.388 219.701 7.612Q219.925 7.836 220 8.022L225.672 22.724L231.343 8.022Q231.418 7.836 231.623 7.612Q231.828 7.388 232.239 7.388H234.067Q234.366 7.388 234.608 7.612Q234.851 7.836 234.851 8.172Q234.851 8.358 234.776 8.545L227.836 25.858Q227.687 26.269 227.369 26.53Q227.052 26.791 226.455 26.791Z M245.821 27.164Q241.94 27.164 239.664 24.795Q237.388 22.425 237.164 18.321Q237.127 17.836 237.127 17.071Q237.127 16.306 237.164 15.821Q237.313 13.172 238.396 11.175Q239.478 9.179 241.362 8.097Q243.246 7.015 245.784 7.015Q248.619 7.015 250.541 8.209Q252.463 9.403 253.47 11.604Q254.478 13.806 254.478 16.754V17.388Q254.478 17.799 254.235 18.022Q253.993 18.246 253.619 18.246H240.709V18.582Q240.784 20.112 241.381 21.437Q241.978 22.761 243.116 23.582Q244.254 24.403 245.784 24.403Q247.127 24.403 248.022 23.993Q248.918 23.582 249.478 23.078Q250.037 22.575 250.224 22.276Q250.56 21.828 250.746 21.735Q250.933 21.642 251.343 21.642H253.172Q253.507 21.642 253.75 21.847Q253.993 22.052 253.955 22.425Q253.918 22.985 253.358 23.787Q252.799 24.59 251.772 25.373Q250.746 26.157 249.235 26.66Q247.724 27.164 245.821 27.164ZM240.709 15.672H250.933V15.56Q250.933 13.881 250.317 12.575Q249.701 11.269 248.545 10.504Q247.388 9.739 245.784 9.739Q244.179 9.739 243.041 10.504Q241.903 11.269 241.306 12.575Q240.709 13.881 240.709 15.56Z M259.851 26.791Q259.478 26.791 259.235 26.549Q258.993 26.306 258.993 25.933V1.157Q258.993 0.784 259.235 0.541Q259.478 0.299 259.851 0.299H261.604Q262.015 0.299 262.239 0.541Q262.463 0.784 262.463 1.157V25.933Q262.463 26.306 262.239 26.549Q262.015 26.791 261.604 26.791Z M287.164 27.164Q283.843 27.164 281.549 25.933Q279.254 24.701 278.041 22.463Q276.828 20.224 276.679 17.201Q276.642 15.56 276.642 13.713Q276.642 11.866 276.679 10.187Q276.828 7.164 278.041 4.944Q279.254 2.724 281.567 1.511Q283.881 0.299 287.164 0.299Q289.776 0.299 291.716 1.045Q293.657 1.791 294.907 2.929Q296.157 4.067 296.772 5.299Q297.388 6.53 297.425 7.463Q297.463 7.799 297.239 8.004Q297.015 8.209 296.642 8.209H294.44Q294.067 8.209 293.899 8.06Q293.731 7.91 293.582 7.537Q293.246 6.567 292.481 5.634Q291.716 4.701 290.429 4.086Q289.142 3.47 287.164 3.47Q284.179 3.47 282.369 5.075Q280.56 6.679 280.41 10.373Q280.299 13.694 280.41 17.015Q280.56 20.746 282.388 22.369Q284.216 23.993 287.164 23.993Q289.142 23.993 290.69 23.246Q292.239 22.5 293.134 20.989Q294.03 19.478 294.03 17.127V15.56H288.433Q288.06 15.56 287.817 15.317Q287.575 15.075 287.575 14.664V13.47Q287.575 13.06 287.817 12.817Q288.06 12.575 288.433 12.575H296.866Q297.276 12.575 297.5 12.817Q297.724 13.06 297.724 13.47V17.052Q297.724 20.112 296.474 22.388Q295.224 24.664 292.836 25.914Q290.448 27.164 287.164 27.164Z M309.813 27.164Q307.425 27.164 305.765 26.101Q304.104 25.037 303.246 23.134Q302.388 21.231 302.388 18.769V8.246Q302.388 7.873 302.631 7.631Q302.873 7.388 303.246 7.388H305.112Q305.485 7.388 305.728 7.631Q305.97 7.873 305.97 8.246V18.582Q305.97 24.142 310.821 24.142Q313.134 24.142 314.534 22.668Q315.933 21.194 315.933 18.582V8.246Q315.933 7.873 316.175 7.631Q316.418 7.388 316.791 7.388H318.657Q319.03 7.388 319.254 7.631Q319.478 7.873 319.478 8.246V25.933Q319.478 26.306 319.254 26.549Q319.03 26.791 318.657 26.791H316.903Q316.53 26.791 316.287 26.549Q316.045 26.306 316.045 25.933V24.291Q315.037 25.597 313.601 26.381Q312.164 27.164 309.813 27.164Z M325.896 26.791Q325.522 26.791 325.28 26.549Q325.037 26.306 325.037 25.933V8.246Q325.037 7.873 325.28 7.631Q325.522 7.388 325.896 7.388H327.687Q328.06 7.388 328.302 7.631Q328.545 7.873 328.545 8.246V25.933Q328.545 26.306 328.302 26.549Q328.06 26.791 327.687 26.791ZM325.597 3.769Q325.224 3.769 324.981 3.526Q324.739 3.284 324.739 2.91V0.896Q324.739 0.522 324.981 0.261Q325.224 0 325.597 0H327.948Q328.321 0 328.582 0.261Q328.843 0.522 328.843 0.896V2.91Q328.843 3.284 328.582 3.526Q328.321 3.769 327.948 3.769Z M341.157 27.164Q339.104 27.164 337.612 26.437Q336.119 25.709 335.168 24.459Q334.216 23.209 333.75 21.604Q333.284 20 333.209 18.209Q333.172 17.612 333.172 17.09Q333.172 16.567 333.209 15.97Q333.284 14.216 333.75 12.612Q334.216 11.007 335.168 9.739Q336.119 8.47 337.612 7.743Q339.104 7.015 341.157 7.015Q343.358 7.015 344.813 7.799Q346.269 8.582 347.201 9.739V1.157Q347.201 0.784 347.444 0.541Q347.687 0.299 348.06 0.299H349.851Q350.224 0.299 350.466 0.541Q350.709 0.784 350.709 1.157V25.933Q350.709 26.306 350.466 26.549Q350.224 26.791 349.851 26.791H348.172Q347.761 26.791 347.537 26.549Q347.313 26.306 347.313 25.933V24.366Q346.381 25.56 344.888 26.362Q343.396 27.164 341.157 27.164ZM341.94 24.142Q343.806 24.142 344.925 23.284Q346.045 22.425 346.604 21.101Q347.164 19.776 347.201 18.396Q347.239 17.799 347.239 16.959Q347.239 16.119 347.201 15.522Q347.164 14.216 346.586 12.948Q346.007 11.679 344.869 10.858Q343.731 10.037 341.94 10.037Q340.037 10.037 338.918 10.877Q337.799 11.716 337.313 13.078Q336.828 14.44 336.754 16.007Q336.716 17.09 336.754 18.172Q336.828 19.739 337.313 21.101Q337.799 22.463 338.918 23.302Q340.037 24.142 341.94 24.142Z M364.03 27.164Q360.149 27.164 357.873 24.795Q355.597 22.425 355.373 18.321Q355.336 17.836 355.336 17.071Q355.336 16.306 355.373 15.821Q355.522 13.172 356.604 11.175Q357.687 9.179 359.571 8.097Q361.455 7.015 363.993 7.015Q366.828 7.015 368.75 8.209Q370.672 9.403 371.679 11.604Q372.687 13.806 372.687 16.754V17.388Q372.687 17.799 372.444 18.022Q372.201 18.246 371.828 18.246H358.918V18.582Q358.993 20.112 359.59 21.437Q360.187 22.761 361.325 23.582Q362.463 24.403 363.993 24.403Q365.336 24.403 366.231 23.993Q367.127 23.582 367.687 23.078Q368.246 22.575 368.433 22.276Q368.769 21.828 368.955 21.735Q369.142 21.642 369.552 21.642H371.381Q371.716 21.642 371.959 21.847Q372.201 22.052 372.164 22.425Q372.127 22.985 371.567 23.787Q371.007 24.59 369.981 25.373Q368.955 26.157 367.444 26.66Q365.933 27.164 364.03 27.164ZM358.918 15.672H369.142V15.56Q369.142 13.881 368.526 12.575Q367.91 11.269 366.754 10.504Q365.597 9.739 363.993 9.739Q362.388 9.739 361.25 10.504Q360.112 11.269 359.515 12.575Q358.918 13.881 358.918 15.56Z" fill="currentColor"/>
</svg>
